<?xml version="1.0" encoding="UTF-8" standalone="no"?>
<!-- Created with Inkscape (http://www.inkscape.org/) -->

<svg
   width="2048"
   height="1024"
   viewBox="0 0 541.86668 270.93332"
   version="1.1"
   id="svg1"
   sodipodi:docname="logo.svg"
   inkscape:version="1.4.4 (dcaf3e7, 2026-05-05)"
   xmlns:inkscape="http://www.inkscape.org/namespaces/inkscape"
   xmlns:sodipodi="http://sodipodi.sourceforge.net/DTD/sodipodi-0.dtd"
   xmlns="http://www.w3.org/2000/svg"
   xmlns:svg="http://www.w3.org/2000/svg">
  <sodipodi:namedview
     id="namedview1"
     pagecolor="#505050"
     bordercolor="#ffffff"
     borderopacity="1"
     inkscape:showpageshadow="0"
     inkscape:pageopacity="0"
     inkscape:pagecheckerboard="1"
     inkscape:deskcolor="#505050"
     inkscape:zoom="0.78808594"
     inkscape:cx="1024"
     inkscape:cy="512"
     inkscape:window-width="1920"
     inkscape:window-height="1009"
     inkscape:window-x="-8"
     inkscape:window-y="-8"
     inkscape:window-maximized="1"
     inkscape:current-layer="layer1" />
  <defs
     id="defs1" />
  <g
     id="layer1"
     inkscape:label="logo">
    <path
       d="m 70.400586,257.91353 c -1.04417,0.83533 -2.297174,1.253 -3.550178,1.253 -1.670672,0 -3.445761,-0.73092 -4.489931,-2.08834 l -22.136404,-27.044 c -0.208834,-0.20884 -0.626502,-0.41767 -0.939753,-0.41767 H 24.352689 c -0.730919,0 -1.253004,0.52208 -1.253004,1.253 v 22.55407 c 0,3.23693 -2.610425,5.74294 -5.742935,5.74294 -3.13251,0 -5.742935,-2.50601 -5.742935,-5.74294 v -55.65426 c 0,-3.13251 2.610425,-5.74293 5.742935,-5.74293 3.13251,0 5.742935,2.61042 5.742935,5.74293 v 19.10831 c 0,0.73092 0.522085,1.25301 1.253004,1.25301 h 15.140465 c 0.313251,0 0.730919,-0.10442 0.939753,-0.41767 L 62.569311,193.9059 c 1.148587,-1.253 2.610425,-1.8795 4.17668,-1.8795 1.357421,0 2.819259,0.52208 3.863429,1.56625 2.297174,2.08834 2.506008,5.74294 0.313251,8.04011 l -20.048064,21.61432 c -0.417668,0.52209 -0.417668,1.25301 0,1.77509 l 20.361315,24.85125 c 1.983923,2.40159 1.566255,6.05618 -0.835336,8.04011 z m -2.714842,-59.20444 c 0.522085,-0.52209 0.522085,-1.35742 0,-1.87951 -0.626502,-0.52208 -1.357421,-0.52208 -1.879506,0 L 41.999162,222.51616 H 18.714171 v -24.74683 c 0,-0.73092 -0.626502,-1.35742 -1.357421,-1.35742 -0.730919,0 -1.357421,0.6265 -1.357421,1.35742 v 55.75868 c 0,0.73092 0.626502,1.25301 1.357421,1.25301 0.730919,0 1.357421,-0.52209 1.357421,-1.25301 V 225.231 h 23.180574 l 23.807076,29.13235 c 0.313251,0.31325 0.626502,0.41767 1.04417,0.41767 0.313251,0 0.626502,-0.10442 0.835336,-0.31326 0.522085,-0.41766 0.626502,-1.253 0.208834,-1.77508 L 44.296336,223.978 Z m -14.096295,25.47774 19.317145,-20.77898 c 3.13251,-3.34134 2.923676,-8.66661 -0.417668,-11.79912 -1.670672,-1.46184 -3.654595,-2.19276 -5.742935,-2.19276 -2.192757,0 -4.489931,0.93976 -6.160603,2.71485 l -21.614319,23.3894 H 25.71011 v -17.75089 c 0,-4.59434 -3.759012,-8.35336 -8.35336,-8.35336 -4.594348,0 -8.3533597,3.75902 -8.3533597,8.35336 v 55.75868 c 0,4.59435 3.7590117,8.35336 8.3533597,8.35336 4.594348,0 8.35336,-3.75901 8.35336,-8.35336 v -21.30107 h 12.947708 l 21.614319,26.52192 c 1.566255,1.98392 3.967846,3.13251 6.473854,3.13251 1.879506,0 3.759012,-0.73092 5.325267,-1.8795 3.550178,-2.92368 4.072263,-8.24895 1.148587,-11.79913 z m 95.959161,31.01185 c -0.73092,2.40159 -2.92368,3.96785 -5.42969,3.96785 -2.08834,0 -4.07226,-1.04417 -5.01201,-3.02809 l -4.38552,-8.24895 c -0.31325,-0.41766 -0.73091,-0.73092 -1.253,-0.73092 H 96.295938 c -0.522085,0 -0.939753,0.31326 -1.148587,0.73092 l -4.281097,8.24895 c -1.04417,1.8795 -3.13251,3.02809 -5.22085,3.02809 -0.835336,0 -1.775089,-0.20883 -2.506008,-0.6265 -2.819259,-1.46184 -3.863429,-4.9076 -2.506008,-7.72686 l 28.819092,-55.65426 c 0.93975,-1.87951 2.92368,-3.02809 5.11643,-3.13251 2.08834,0 4.07227,1.14859 5.01202,3.02809 l 29.55001,55.75868 c 0.73092,1.35742 0.93975,2.92368 0.41767,4.38551 z m -25.68658,-22.1364 h -18.16856 l 8.97986,-17.22881 z m -9.29312,-32.47369 20.98782,39.57405 H 94.103181 Z m 7.30919,-6.7871 c -1.35742,-2.71484 -4.17668,-4.38552 -7.4136,-4.38552 -3.13251,0 -5.95177,1.77509 -7.30919,4.48993 l -28.819096,55.75868 c -2.08834,4.07227 -0.522085,9.08428 3.550178,11.27704 1.148587,0.6265 2.506008,0.93975 3.863429,0.93975 3.13251,0 5.951769,-1.77509 7.413607,-4.59435 l 3.967846,-7.51802 h 35.606196 l 3.96785,7.62244 c 1.04417,1.98392 2.81926,3.44576 4.9076,4.07226 0.83533,0.31325 1.67067,0.41767 2.506,0.41767 1.35743,0 2.71485,-0.31325 3.86343,-1.04417 1.98393,-1.04417 3.44576,-2.81926 4.17668,-4.9076 0.62651,-2.08834 0.41767,-4.38551 -0.6265,-6.36943 z m -19.52598,39.99171 c -0.20883,0.41767 -0.20883,0.93975 0.10442,1.253 0.20884,0.41767 0.6265,0.73092 1.04417,0.73092 h 22.55407 c 0.41767,0 0.83534,-0.31325 1.04417,-0.73092 0.31325,-0.31325 0.31325,-0.83533 0.10442,-1.253 l -11.38145,-21.5099 c -0.31325,-0.41767 -0.73092,-0.62651 -1.25301,-0.62651 -0.41766,0 -0.93975,0.20884 -1.14858,0.62651 z m 13.36538,-36.65037 c -0.20883,-0.41767 -0.73092,-0.73092 -1.14859,-0.73092 -0.52208,0 -0.93975,0.31325 -1.253,0.73092 l -28.714676,55.75868 c -0.313251,0.6265 -0.104417,1.46184 0.522085,1.77509 0.208834,0.10442 0.417668,0.10442 0.626502,0.10442 0.522085,0 0.939753,-0.20884 1.148587,-0.73092 l 5.847352,-11.27704 h 44.16839 l 6.05619,11.38145 c 0.31325,0.62651 1.14858,0.83534 1.77509,0.52209 0.6265,-0.41767 0.83533,-1.14859 0.52208,-1.77509 z m 95.8547,62.0237 c -1.46184,0 -2.81926,-0.52209 -3.86343,-1.46184 l -19.52598,-18.16856 c -0.20883,-0.20883 -0.52208,-0.31325 -0.93975,-0.31325 h -15.87139 c -0.73091,0 -1.253,0.6265 -1.253,1.35742 v 12.94771 c 0,3.13251 -2.61042,5.63852 -5.74293,5.63852 -3.13251,0 -5.74294,-2.50601 -5.74294,-5.63852 v -52.2085 c 0,-5.11643 4.17668,-9.29311 9.29311,-9.29311 h 25.791 c 12.94771,0 23.59824,10.65053 23.59824,23.59824 0,8.87545 -5.01201,16.91555 -12.9477,20.98782 -0.31325,0.20883 -0.62651,0.52208 -0.62651,1.04417 -0.10441,0.41767 0.10442,0.83533 0.41767,1.14858 l 11.27704,10.4417 c 1.14859,1.04417 1.77509,2.50601 1.8795,4.07227 0,3.34134 -2.506,5.84735 -5.74293,5.84735 z m -45.83906,-57.84702 c 0,-1.253 0.93975,-2.19276 2.19275,-2.19276 h 25.791 c 9.08428,0 16.49789,7.41361 16.49789,16.49789 0,9.08428 -7.41361,16.6023 -16.49789,16.6023 h -27.98375 z m 27.98375,4.80318 c 5.22085,0 9.50195,4.2811 9.50195,9.50195 0,5.22085 -4.2811,9.50195 -9.50195,9.50195 h -20.98781 v -19.0039 z m 12.11237,9.50195 c 0,-6.68269 -5.42968,-12.11237 -12.11237,-12.11237 h -22.34524 c -0.73091,0 -1.253,0.52208 -1.253,1.253 v 21.71874 c 0,0.73092 0.52209,1.253 1.253,1.253 h 22.34524 c 6.68269,0 12.11237,-5.42968 12.11237,-12.11237 z m 1.46184,22.44966 c 7.83128,-4.80319 12.63446,-13.15655 12.63446,-22.44966 0,-14.40955 -11.79912,-26.20867 -26.20867,-26.20867 h -25.791 c -6.57827,0 -11.90353,5.32527 -11.90353,11.90354 v 52.2085 c 0,4.59435 3.75901,8.35336 8.35336,8.35336 4.59434,0 8.35336,-3.75901 8.35336,-8.35336 v -11.6947 h 13.99187 l 19.10831,17.75089 c 1.56626,1.46184 3.6546,2.29717 5.74294,2.29717 2.29717,0 4.59435,-1.04417 6.1606,-2.71484 1.46184,-1.67067 2.29718,-3.75901 2.19276,-5.95177 -0.10442,-2.29717 -1.04417,-4.38551 -2.71484,-5.84735 l -10.02403,-9.29311 z m -13.57421,-3.23693 c 10.54612,0 19.21273,-8.66661 19.21273,-19.21273 0,-10.54612 -8.66661,-19.21273 -19.21273,-19.21273 h -25.791 c -2.71484,0 -4.9076,2.19276 -4.9076,4.9076 v 52.2085 c 0,0.73092 0.62651,1.25301 1.35743,1.25301 0.73091,0 1.35742,-0.52209 1.35742,-1.25301 v -18.69064 h 23.80707 l 21.09224,19.63039 c 0.31325,0.20884 0.6265,0.31326 0.93975,0.31326 0.31325,0 0.73092,-0.10442 0.93975,-0.41767 0.52209,-0.52209 0.52209,-1.35742 0,-1.87951 l -19.10831,-17.64647 z m 101.80655,20.36131 c -0.73092,2.40159 -2.92368,3.96785 -5.42969,3.96785 -2.08834,0 -4.07226,-1.04417 -5.01201,-3.02809 l -4.38552,-8.24895 c -0.31325,-0.41766 -0.73091,-0.73092 -1.253,-0.73092 h -37.17245 c -0.52209,0 -0.93975,0.31326 -1.14859,0.73092 l -4.28109,8.24895 c -1.04417,1.8795 -3.13251,3.02809 -5.22085,3.02809 -0.83534,0 -1.77509,-0.20883 -2.50601,-0.6265 -2.81926,-1.46184 -3.86343,-4.9076 -2.50601,-7.72686 l 28.81909,-55.65426 c 0.93975,-1.87951 2.92368,-3.02809 5.11643,-3.13251 2.08834,0 4.07227,1.14859 5.01202,3.02809 l 29.55001,55.75868 c 0.73092,1.35742 0.93975,2.92368 0.41767,4.38551 z m -25.68658,-22.1364 H 251.6683 l 8.97986,-17.22881 z m -9.29312,-32.47369 20.98782,39.57405 h -41.45355 z m 7.30919,-6.7871 c -1.35742,-2.71484 -4.17668,-4.38552 -7.4136,-4.38552 -3.13251,0 -5.95177,1.77509 -7.30919,4.48993 l -28.81909,55.75868 c -2.08834,4.07227 -0.52209,9.08428 3.55017,11.27704 1.14859,0.6265 2.50601,0.93975 3.86343,0.93975 3.13251,0 5.95177,-1.77509 7.41361,-4.59435 l 3.96785,-7.51802 h 35.60619 l 3.96785,7.62244 c 1.04417,1.98392 2.81926,3.44576 4.9076,4.07226 0.83533,0.31325 1.67067,0.41767 2.506,0.41767 1.35743,0 2.71485,-0.31325 3.86343,-1.04417 1.98393,-1.04417 3.44576,-2.81926 4.17668,-4.9076 0.62651,-2.08834 0.41767,-4.38551 -0.6265,-6.36943 z m -19.52597,39.99171 c -0.20884,0.41767 -0.20884,0.93975 0.10441,1.253 0.20884,0.41767 0.6265,0.73092 1.04417,0.73092 h 22.55407 c 0.41767,0 0.83534,-0.31325 1.04417,-0.73092 0.31326,-0.31325 0.31326,-0.83533 0.10442,-1.253 l -11.38145,-21.5099 c -0.31325,-0.41767 -0.73092,-0.62651 -1.25301,-0.62651 -0.41766,0 -0.93975,0.20884 -1.14858,0.62651 z m 13.36537,-36.65037 c -0.20883,-0.41767 -0.73092,-0.73092 -1.14859,-0.73092 -0.52208,0 -0.93975,0.31325 -1.253,0.73092 l -28.71467,55.75868 c -0.31326,0.6265 -0.10442,1.46184 0.52208,1.77509 0.20883,0.10442 0.41767,0.10442 0.6265,0.10442 0.52209,0 0.93976,-0.20884 1.14859,-0.73092 l 5.84735,-11.27704 h 44.16839 l 6.05619,11.38145 c 0.31325,0.62651 1.14858,0.83534 1.77509,0.52209 0.6265,-0.41767 0.83533,-1.14859 0.52208,-1.77509 z m 104.73031,58.99561 c -1.04417,1.8795 -3.02809,3.02809 -5.11643,3.02809 -2.08834,0 -4.07226,-1.14859 -5.01202,-3.02809 l -13.05212,-25.26892 c -0.20883,-0.41767 -0.6265,-0.6265 -1.14859,-0.6265 -0.52208,0 -0.93975,0.20883 -1.14858,0.6265 l -13.4698,25.26892 c -0.93975,1.8795 -2.92367,3.02809 -5.11643,3.02809 -2.08834,0 -4.07226,-1.14859 -5.01202,-3.02809 l -28.81909,-55.75868 c -1.35742,-2.81926 -0.31325,-6.26502 2.50601,-7.72686 0.83534,-0.41767 1.67067,-0.6265 2.61042,-0.6265 2.08834,0 4.07227,1.14859 5.11644,3.13251 l 22.55407,43.75072 c 0.20883,0.41767 0.6265,0.83534 1.14859,0.73092 0.52208,0 0.93975,-0.31325 1.253,-0.73092 l 11.59029,-22.03199 c 0.20883,-0.41766 0.20883,-0.83533 0.10441,-1.253 l -7.93569,-15.24488 c -1.46184,-2.81926 -0.31325,-6.26502 2.50601,-7.72686 0.83534,-0.41767 1.67067,-0.6265 2.61043,-0.6265 0.52208,0 1.14858,0.10442 1.67067,0.31325 1.46184,0.41767 2.71484,1.46184 3.34134,2.81926 l 22.65849,43.75072 c 0.20883,0.41767 0.73092,0.83534 1.14859,0.73092 0.52208,0 0.93975,-0.31325 1.14858,-0.73092 l 23.28499,-43.85514 c 1.04417,-1.8795 3.0281,-2.92367 5.11644,-2.92367 0.83533,0 1.77509,0.20883 2.61042,0.6265 2.81926,1.46184 3.86343,4.9076 2.40159,7.72686 z m 28.40143,-65.6783 c -1.25301,-0.6265 -2.61043,-1.04417 -3.96785,-1.04417 -2.92368,0 -5.74293,1.67068 -7.30919,4.38552 l -22.1364,41.66238 -21.40549,-41.55797 c -1.46184,-2.71484 -4.38551,-4.48993 -7.4136,-4.48993 -1.35743,0 -2.71485,0.31325 -3.86343,0.93976 -4.07227,2.08834 -5.74294,7.20477 -3.55018,11.27703 l 7.51802,14.61838 -10.23286,19.21273 -21.40549,-41.55797 c -1.46184,-2.81925 -4.38551,-4.48993 -7.41361,-4.48993 -1.35742,0 -2.61042,0.31325 -3.86342,0.93976 -4.07227,2.08834 -5.63852,7.20477 -3.55018,11.27703 l 28.71467,55.65426 c 1.46184,2.81926 4.2811,4.59435 7.51803,4.59435 3.02809,0 5.84735,-1.77509 7.30919,-4.48993 l 12.3212,-23.07616 11.79912,22.97174 c 1.46184,2.81926 4.2811,4.59435 7.41361,4.59435 3.13251,0 5.95177,-1.77509 7.41361,-4.48993 l 29.55001,-55.65426 c 2.19275,-4.17668 0.6265,-9.1887 -3.44576,-11.27704 z m -3.23693,6.16061 c -0.73092,-0.31325 -1.46184,-0.10442 -1.87951,0.52208 l -28.40142,53.46151 -27.56609,-53.46151 c -0.31325,-0.6265 -1.14858,-0.83533 -1.77509,-0.52208 -0.6265,0.31325 -0.93975,1.14858 -0.6265,1.77509 l 9.29311,17.95972 -18.16855,34.24878 -27.67051,-53.46151 c -0.31325,-0.6265 -1.14859,-0.83533 -1.77509,-0.52208 -0.6265,0.31325 -0.83533,1.14858 -0.52208,1.77509 l 28.81909,55.65426 c 0.20883,0.52208 0.6265,0.83533 1.14859,0.73092 0.41766,0 0.93975,-0.20884 1.14858,-0.73092 l 18.48181,-34.87528 18.06414,34.87528 c 0.20884,0.52208 0.73092,0.73092 1.14859,0.73092 0.52209,0 0.93975,-0.20884 1.14859,-0.62651 l 29.65442,-55.75867 c 0.31326,-0.62651 0.10442,-1.46184 -0.52208,-1.77509 z m 24.64236,62.54578 c -5.11644,0 -9.29312,-4.07226 -9.29312,-9.1887 v -48.65832 c 0,-5.11643 4.17668,-9.29311 9.29312,-9.29311 h 40.51379 c 3.13251,0 5.74294,2.61042 5.74294,5.74293 0,3.13251 -2.61043,5.74294 -5.74294,5.74294 h -37.06803 c -0.73092,0 -1.25301,0.52208 -1.25301,1.253 v 13.88746 c 0,0.73092 0.52209,1.25301 1.25301,1.25301 h 17.12439 c 3.13251,0 5.63851,2.61042 5.63851,5.74293 0,3.13251 -2.506,5.74294 -5.63851,5.74294 h -17.12439 c -0.73092,0 -1.25301,0.52208 -1.25301,1.253 v 13.78305 c 0,0.73091 0.52209,1.35742 1.25301,1.35742 h 37.06803 c 3.13251,0 5.74294,2.506 5.74294,5.74293 0,3.13251 -2.61043,5.63852 -5.74294,5.63852 z m 4.80318,-14.0963 v -11.0682 h 15.76697 c 4.59434,0 8.35336,-3.75901 8.35336,-8.35336 0,-4.59435 -3.75902,-8.35336 -8.35336,-8.35336 h -15.76697 v -11.17262 h 35.71061 c 4.59435,0 8.35336,-3.75901 8.35336,-8.35336 0,-4.59434 -3.75901,-8.35336 -8.35336,-8.35336 H 416.2295 c -6.57827,0 -11.90354,5.32527 -11.90354,11.90354 v 48.65832 c 0,6.57827 5.32527,11.90354 11.90354,11.90354 h 40.51379 c 4.59435,0 8.35336,-3.75901 8.35336,-8.35336 0,-4.69876 -3.75901,-8.45778 -8.35336,-8.45778 z m -4.80318,7.10036 c -1.25301,0 -2.19276,-0.93975 -2.19276,-2.19276 v -23.07615 h 22.76291 c 0.73091,0 1.253,-0.52209 1.253,-1.25301 0,-0.73092 -0.52209,-1.35742 -1.253,-1.35742 h -22.76291 v -22.97174 c 0,-1.253 0.93975,-2.19276 2.19276,-2.19276 h 40.51379 c 0.73092,0 1.35742,-0.6265 1.35742,-1.35742 0,-0.73092 -0.6265,-1.35742 -1.35742,-1.35742 H 416.2295 c -2.71485,0 -4.9076,2.19276 -4.9076,4.9076 v 48.65832 c 0,2.61043 2.19275,4.80319 4.9076,4.80319 h 40.51379 c 0.73092,0 1.35742,-0.52209 1.35742,-1.25301 0,-0.73092 -0.6265,-1.35742 -1.35742,-1.35742 z m 64.63406,0 c -1.253,0 -2.19276,-0.93975 -2.19276,-2.19276 V 219.0704 h 27.98376 c 9.08428,0 16.49789,7.41361 16.49789,16.6023 0,9.08428 -7.41361,16.49789 -16.49789,16.49789 z m 4.80318,-6.99594 v -19.00389 h 20.98782 c 5.22085,0 9.50195,4.17668 9.50195,9.50194 0,5.22085 -4.2811,9.50195 -9.50195,9.50195 z m 21.5099,-39.05196 c 0.83534,0 1.56626,0.73092 1.56626,1.67068 0,0.83533 -0.73092,1.56625 -1.56626,1.56625 h -21.5099 v -3.23693 z m -28.50584,-4.80318 c 0,-1.253 0.93976,-2.19276 2.19276,-2.19276 h 26.31308 c 4.80319,0 8.66662,3.86343 8.66662,8.66662 0,4.80318 -3.86343,8.66661 -8.66662,8.66661 H 478.6708 Z m 2.19276,57.84702 c -5.11643,0 -9.29311,-4.07226 -9.29311,-9.1887 v -48.65832 c 0,-5.11643 4.17668,-9.29311 9.29311,-9.29311 h 26.31308 c 8.66662,0 15.66255,7.10035 15.66255,15.76697 0,2.71484 -0.6265,5.32526 -1.98392,7.62244 -0.31325,0.6265 -0.20883,1.35742 0.31325,1.77509 5.74294,4.48993 9.08428,11.17261 9.08428,18.4818 0,12.94771 -10.65053,23.49383 -23.59824,23.49383 z m 42.81097,-43.43747 c 1.253,-2.40159 1.87951,-5.11644 1.87951,-7.93569 0,-10.12845 -8.24895,-18.3774 -18.3774,-18.3774 h -26.31308 c -6.57827,0 -11.90354,5.32527 -11.90354,11.90354 v 48.65832 c 0,6.57827 5.32527,11.90354 11.90354,11.90354 h 25.791 c 14.40955,0 26.20867,-11.79912 26.20867,-26.20867 0,-7.72685 -3.34135,-14.93163 -9.1887,-19.94364 z m -10.85937,1.77509 c 3.34135,-1.98393 5.63852,-5.5341 5.63852,-9.71078 0,-6.26502 -5.11643,-11.38146 -11.27704,-11.38146 h -26.31308 c -2.71484,0 -4.9076,2.19276 -4.9076,4.9076 v 48.65832 c 0,2.61043 2.19276,4.80319 4.9076,4.80319 h 25.791 c 10.54612,0 19.21273,-8.5622 19.21273,-19.10832 0,-8.45777 -5.5341,-15.55813 -13.05213,-18.16855 z m -28.50584,5.95177 c -0.73092,0 -1.253,0.6265 -1.253,1.35742 v 21.61432 c 0,0.73091 0.52208,1.35742 1.253,1.35742 h 22.34524 c 6.68269,0 12.11237,-5.42969 12.11237,-12.11238 0,-6.7871 -5.42968,-12.21678 -12.11237,-12.21678 z m 27.14842,-15.66255 c 0,-2.4016 -1.98392,-4.2811 -4.2811,-4.2811 h -22.86732 c -0.73092,0 -1.253,0.52208 -1.253,1.253 v 5.95177 c 0,0.73092 0.52208,1.35742 1.253,1.35742 h 22.86732 c 2.29718,0 4.2811,-1.98392 4.2811,-4.28109 z"
       id="text1"
       style="font-size:104.417px;font-family:'Modern Neon';-inkscape-font-specification:'Modern Neon';fill:none;stroke:#00ffff;stroke-width:3.21677;stroke-linecap:round;stroke-linejoin:round"
       inkscape:label="title"
       aria-label="KARAWEB" />
    <a
       id="a3"
       transform="matrix(0.33935259,0,0,0.33935259,187.69771,6.509578)"
       inkscape:label="vinyl">
      <circle
         style="fill:none;stroke:#ff00ff;stroke-width:21.5424;stroke-dasharray:none;stroke-opacity:1"
         id="path1"
         cx="245.27771"
         cy="248.65271"
         r="225.66559" />
      <circle
         style="fill:none;stroke:#ff00ff;stroke-width:16.4319;stroke-dasharray:none;stroke-opacity:1"
         id="path2"
         cx="245.27771"
         cy="248.65271"
         r="72.404137" />
    </a>
    <a
       id="a2"
       transform="matrix(0.33935259,0,0,0.33935259,183.58772,6.509578)"
       inkscape:label="mic">
      <rect
         style="fill:none;fill-opacity:1;stroke:#00ffff;stroke-width:16.4818;stroke-linecap:butt;stroke-dasharray:none;stroke-opacity:1"
         id="rect2"
         width="382.63724"
         height="127.09261"
         x="-315.81403"
         y="299.83347"
         ry="63.546307"
         transform="rotate(-45)" />
      <circle
         style="fill:none;fill-opacity:1;stroke:#00ffff;stroke-width:16.8924;stroke-linecap:butt;stroke-dasharray:none;stroke-opacity:1"
         id="path3"
         cx="363.37973"
         cy="-186.24814"
         r="110.94805"
         transform="rotate(45)" />
      <path
         style="fill:none;fill-opacity:1;stroke:#00ffff;stroke-width:16.5234;stroke-linecap:round;stroke-dasharray:none;stroke-opacity:1"
         d="m 309.96896,46.67913 c 0,0 -17.88145,20.9734 59.25366,96.16578 77.13511,75.19236 96.16581,59.25369 96.16581,59.25369"
         id="path4" />
    </a>
  </g>
</svg>
